# xmcd
#
# Track frame offsets:
#	150
#	10145
#	24100
#	41242
#	53985
#	68382
#	81142
#	92800
#	105865
#	119722
#	135695
#	155570
#	169850
#	181830
#	200905
#
# Disc length: 2808 seconds
#
# Revision: 0
# Processed by: cddbd v1.5.1PL0 Copyright (c) Steve Scherf et al.
# Submitted via: audiograbber 1.80.04
#
DISCID=c20af60f
DTITLE=Bobby Haché - Hommage A Mes Amis
DYEAR=1900
DGENRE=Country
TTITLE0=L'adieu Du Soldat
TTITLE1=Vole Colombe
TTITLE2=Je Brûle Tes Lettres D'amour
TTITLE3=A Ma Fenêtre
TTITLE4=Mon Enfant Je Te Pardonne
TTITLE5=Dans Ma Belle Petite Maison
TTITLE6=Sois Fidèle Et Sincère
TTITLE7=Je Marche Sur La Route
TTITLE8=Excusez Moi Monsieur
TTITLE9=Les Cavaliers Du Ciel
TTITLE10=Mon Vieux Copain
TTITLE11=Le Long Du Mississipi
TTITLE12=Chérie Tu Me Demandes
TTITLE13=Medley Willie Lamothe
TTITLE14=Willie Et Moi
EXTD=
EXTT0=
EXTT1=
EXTT2=
EXTT3=
EXTT4=
EXTT5=
EXTT6=
EXTT7=
EXTT8=
EXTT9=
EXTT10=
EXTT11=
EXTT12=
EXTT13=
EXTT14=
PLAYORDER=
